<?xml version="1.0" encoding="UTF-8"?>
<!DOCTYPE svg PUBLIC "-//W3C//DTD SVG 1.1//EN" "http://www.w3.org/Graphics/SVG/1.1/DTD/svg11.dtd">
<!-- Creator: CorelDRAW X7 -->
<svg xmlns="http://www.w3.org/2000/svg" xml:space="preserve" width="700px" height="200px" version="1.1" style="shape-rendering:geometricPrecision; text-rendering:geometricPrecision; image-rendering:optimizeQuality; fill-rule:evenodd; clip-rule:evenodd"
viewBox="0 0 70000 20000"
 xmlns:xlink="http://www.w3.org/1999/xlink">
 <defs>
  <style type="text/css">
   <![CDATA[
    .fil1 {fill:#DD4142}
    .fil0 {fill:white}
   ]]>
  </style>
 </defs>
 <g id="Слой_x0020_1">
  <metadata id="CorelCorpID_0Corel-Layer"/>
  <path class="fil0" d="M6996 4570c-28,8 -75,36 -104,64l-52 49 4 3039c4,3337 -3,3056 83,3532 304,1688 1404,3178 2932,3974 1477,770 3184,852 4748,231 193,-76 604,-281 782,-389 403,-247 702,-476 1030,-796 1228,-1194 1844,-2868 1688,-4580 -118,-1291 -672,-2498 -1574,-3424 -894,-924 -2082,-1512 -3360,-1668 -340,-42 -652,-48 -2376,-48 -1898,0 -1769,-6 -1841,80 -60,70 -65,130 -60,840 4,658 4,660 35,717 17,31 49,69 73,83 41,26 79,26 1807,26 1093,0 1838,6 1960,14 1153,82 2206,670 2884,1609 392,543 650,1228 717,1904 16,173 17,591 1,753 -130,1306 -861,2426 -1997,3059 -639,356 -1392,525 -2133,477 -706,-45 -1340,-257 -1919,-637 -231,-152 -407,-297 -617,-511 -648,-653 -1042,-1508 -1119,-2432 -7,-74 -12,-1420 -13,-2989 -2,-2748 -3,-2855 -26,-2887 -13,-18 -52,-48 -84,-66l-58 -34 -680 -2c-434,-2 -699,2 -731,12l0 0zm833 305c206,44 366,183 438,381 25,71 29,103 24,220 -4,122 -11,148 -48,227 -72,148 -188,249 -352,305 -124,42 -294,32 -416,-25 -123,-57 -224,-157 -284,-279 -140,-282 -22,-634 260,-776 124,-62 249,-80 378,-53l0 0zm2334 25c346,130 488,535 300,856 -50,86 -158,180 -258,227 -122,57 -292,67 -418,25 -282,-94 -458,-384 -400,-661 33,-164 145,-325 278,-404 144,-84 343,-101 498,-43l0 0zm1917 -26c109,21 207,72 292,153 231,220 249,552 44,805 -188,232 -572,268 -807,76 -377,-306 -250,-901 219,-1026 87,-24 159,-26 252,-8l0 0z"/>
  <path class="fil0" d="M21907 9220l0 4254 1830 0c1207,0 1882,-6 1978,-15 913,-89 1606,-520 1952,-1209 237,-475 317,-1131 205,-1683 -127,-616 -527,-1133 -1088,-1404 -109,-52 -140,-76 -100,-76 31,0 255,-135 363,-220 373,-292 630,-731 714,-1217 30,-174 35,-496 11,-683 -69,-561 -283,-1004 -655,-1352 -364,-344 -868,-557 -1477,-627 -153,-18 -439,-21 -1956,-21l-1777 0 0 4253zm3597 -3057c167,39 244,64 369,125 226,110 387,268 495,486 97,198 117,292 117,573 0,283 -20,377 -120,577 -161,322 -477,532 -912,611 -110,20 -261,24 -1189,28l-1064 5 0 -1221 0 -1221 1091 5c1050,4 1093,5 1213,32l0 0zm-24 3577c237,31 471,116 649,238 43,29 124,101 180,161 124,131 223,313 274,505 30,115 34,155 36,363 0,197 -4,251 -30,351 -136,541 -538,874 -1142,942 -71,8 -556,14 -1183,14l-1064 0 0 -1294 0 -1293 1091 0c622,0 1132,7 1189,13l0 0z"/>
  <polygon class="fil1" points="39600,5547 39600,6127 40767,6127 41933,6127 41933,9800 41933,13474 42580,13474 43227,13474 43227,9800 43227,6127 44400,6127 45573,6127 45573,5547 45573,4967 42587,4967 39600,4967 "/>
  <path class="fil1" d="M62773 6487l0 1520 -124 -123c-342,-340 -697,-490 -1248,-532 -534,-40 -1074,87 -1445,338 -483,328 -767,897 -868,1745 -65,540 -65,1468 0,2012 99,824 364,1385 813,1716 359,264 910,412 1439,384 580,-29 988,-205 1344,-580l116 -121 0 313 0 315 600 0 600 0 0 -4254 0 -4253 -613 0 -614 0 0 1520 0 0zm-938 1979c496,104 773,448 882,1096 47,270 60,534 52,1018 -5,303 -14,496 -29,600 -68,487 -177,756 -393,975 -182,183 -370,263 -687,292 -264,25 -531,-19 -727,-120 -356,-185 -546,-535 -633,-1160 -29,-209 -43,-949 -21,-1227 18,-240 57,-478 102,-640 44,-150 162,-386 242,-486 166,-204 404,-330 700,-367 128,-16 394,-5 512,19l0 0z"/>
  <path class="fil0" d="M36267 6607l0 920 -343 3 -344 4 -4 469 -3 471 347 0 347 0 0 1716c0,1162 5,1756 14,1837 96,789 590,1312 1346,1427 92,14 253,20 584,20l456 0 0 -520 0 -520 -290 0c-340,-2 -458,-18 -576,-80 -98,-54 -192,-151 -236,-246 -73,-160 -72,-116 -72,-1945l0 -1689 587 0 587 0 -3 -471 -4 -469 -583 -4 -584 -3 0 -920 0 -920 -613 0 -613 0 0 920 0 0z"/>
  <path class="fil0" d="M9027 6602c-19,12 -47,40 -62,62 -65,100 -65,95 -65,996 0,787 1,852 24,918 13,38 45,90 69,116l43 46 1797 0c1759,0 1799,0 1931,28 445,91 803,364 1003,766 172,345 200,738 78,1105 -198,608 -789,1011 -1430,977 -624,-32 -1128,-432 -1316,-1042l-38 -120 -8 -614c-8,-702 0,-658 -129,-722l-77 -38 -875 0 -873 0 -79 40c-132,68 -127,40 -125,700 1,572 12,755 58,1014 90,484 274,937 547,1346 148,223 264,364 440,540 461,462 1027,784 1647,940 350,88 448,99 900,99 453,0 548,-9 904,-100 776,-195 1484,-671 1972,-1324 508,-679 764,-1547 705,-2384 -39,-539 -151,-952 -388,-1417 -556,-1098 -1639,-1830 -2869,-1940 -76,-7 -940,-12 -1944,-12 -1619,0 -1811,1 -1840,20l0 0zm1034 500c119,21 216,73 306,164 312,313 186,833 -232,968 -138,44 -294,34 -419,-23 -124,-59 -225,-157 -285,-281 -43,-86 -50,-114 -55,-216 -8,-152 27,-271 108,-382 67,-92 128,-140 229,-186 118,-55 223,-67 348,-44l0 0zm19 2326c368,83 563,486 399,828 -108,226 -375,367 -614,324 -224,-40 -396,-186 -465,-394 -39,-114 -33,-295 11,-406 65,-165 233,-310 408,-352 108,-25 152,-25 261,0l0 0z"/>
  <path class="fil0" d="M31675 7355c-986,93 -1722,675 -2068,1632 -300,827 -311,2031 -27,2885 281,844 843,1370 1685,1580 584,147 1343,126 1899,-53 380,-123 751,-355 1088,-680l121 -119 -388 -362 -388 -363 -118 105c-342,307 -626,446 -1015,494 -175,22 -609,10 -744,-20 -147,-32 -317,-100 -443,-175 -128,-77 -314,-253 -397,-377 -169,-254 -267,-574 -289,-959l-8 -149 1968 0 1969 0 0 -318c0,-369 -17,-637 -55,-869 -202,-1263 -957,-2067 -2096,-2233 -181,-27 -521,-36 -694,-19l0 0zm617 1051c396,100 692,361 860,760 93,220 127,373 148,670l8 118 -1363 0 -1362 0 9 -151c19,-316 64,-496 181,-736 176,-361 499,-603 907,-679 157,-29 459,-20 612,18l0 0z"/>
  <path class="fil1" d="M48101 7355c-985,93 -1721,675 -2068,1632 -300,827 -310,2031 -26,2885 281,844 842,1370 1685,1580 584,147 1343,126 1899,-53 380,-123 750,-355 1088,-680l121 -119 -388 -362 -388 -363 -119 105c-341,307 -625,446 -1014,494 -175,22 -610,10 -744,-20 -147,-32 -318,-100 -443,-175 -128,-77 -315,-253 -397,-377 -170,-254 -267,-574 -290,-959l-8 -149 1968 0 1970 0 0 -318c0,-369 -18,-637 -55,-869 -203,-1263 -957,-2067 -2096,-2233 -181,-27 -521,-36 -695,-19l0 0zm618 1051c396,100 692,361 860,760 93,220 126,373 148,670l8 118 -1363 0 -1363 0 10 -151c18,-316 64,-496 181,-736 176,-361 499,-603 907,-679 157,-29 458,-20 612,18l0 0z"/>
  <path class="fil1" d="M55135 7355c-482,47 -948,252 -1278,563l-110 105 0 -301 0 -302 -600 0 -600 0 0 3027 0 3027 613 0 613 0 0 -1887c0,-1255 6,-1931 15,-2016 73,-660 457,-1057 1091,-1125 161,-18 369,-4 513,34 460,122 743,458 828,980 17,110 20,387 20,2070l0 1944 613 0 614 0 0 -2052c0,-1330 -6,-2100 -14,-2190 -45,-442 -180,-824 -393,-1108 -109,-145 -308,-333 -451,-429 -398,-265 -945,-391 -1474,-340l0 0z"/>
 </g>
</svg>
