<svg id="Layer_1" data-name="Layer 1" xmlns="http://www.w3.org/2000/svg" xmlns:xlink="http://www.w3.org/1999/xlink" viewBox="0 0 82.75 82.75"><defs><style>.cls-1{fill:url(#linear-gradient);}.cls-2{fill:url(#linear-gradient-2);}</style><linearGradient id="linear-gradient" x1="70.74" y1="12.26" x2="12.26" y2="70.74" gradientUnits="userSpaceOnUse"><stop offset="0" stop-color="#f5605f"/><stop offset="1" stop-color="#f08b43"/></linearGradient><linearGradient id="linear-gradient-2" x1="48.63" y1="29.03" x2="23.7" y2="53.97" xlink:href="#linear-gradient"/></defs><title>play</title><path class="cls-1" d="M41.5,82.88A41.38,41.38,0,1,1,82.88,41.5,41.42,41.42,0,0,1,41.5,82.88Zm0-79.75A38.38,38.38,0,1,0,79.88,41.5,38.42,38.42,0,0,0,41.5,3.13Z" transform="translate(-0.13 -0.13)"/><path class="cls-2" d="M30.57,22.83V60.17A1.61,1.61,0,0,0,33,61.58L59.6,42.91a1.61,1.61,0,0,0,0-2.82L33,21.42A1.61,1.61,0,0,0,30.57,22.83Z" transform="translate(-0.13 -0.13)"/></svg>