<?xml version="1.0" encoding="UTF-8"?>
<svg width="91px" height="35px" viewBox="0 0 91 35" version="1.1" xmlns="http://www.w3.org/2000/svg" xmlns:xlink="http://www.w3.org/1999/xlink">
    <!-- Generator: Sketch 43.2 (39069) - http://www.bohemiancoding.com/sketch -->
    <title>logo</title>
    <desc>Created with Sketch.</desc>
    <defs></defs>
    <g id="Logos" stroke="none" stroke-width="1" fill="none" fill-rule="evenodd">
        <g id="logo" fill="#FF6400">
            <path d="M22.4505204,29.2700005 L22.4505204,5 L23.6637777,5 L23.6637777,29.2700005 L22.4505204,29.2700005 Z M35.1921493,8.15546411 L35.1921493,8.03387141 L40.0461494,8.03387141 L40.0461494,20.1688716 C40.0461494,23.5198306 37.3296082,26.2363718 33.9786493,26.2363718 C30.6276903,26.2363718 27.9111492,23.5198306 27.9111492,20.1688716 L32.7651492,20.1688716 C32.7651492,20.8389663 33.3083119,21.3823717 33.9786493,21.3823717 C34.648744,21.3823717 35.1921493,20.8389663 35.1921493,20.1688716 L35.1921493,8.15546411 Z M52.7194825,14.5483764 C53.2563349,15.1296429 53.6706238,15.8363853 53.9506996,16.6491876 C54.2259214,17.4500976 54.3654739,18.3565822 54.3654739,19.3436431 C54.3654739,19.5802756 54.356494,19.7955505 54.3390196,19.9834003 C54.3137788,20.2450309 54.2899942,20.3600707 54.2419396,20.4573934 L54.1079692,20.7270331 L45.7127334,20.7270331 C45.7539924,20.9192515 45.8151528,21.1010338 45.8959719,21.2694676 C46.0469313,21.5859484 46.248615,21.8643253 46.4951982,22.0973173 C46.7410533,22.3295812 47.0288955,22.5130624 47.3509584,22.6431496 C47.670837,22.7727514 48.0220239,22.8385231 48.3948111,22.8385231 C49.1292214,22.8385231 49.6884022,22.6778557 50.0563354,22.3611322 L50.2531651,22.1919703 L53.8116325,23.1831572 L53.4320497,23.7420953 C53.0961529,24.2372033 52.6753111,24.6762476 52.1809312,25.0470932 C51.6880075,25.4167253 51.1191187,25.7103923 50.4900403,25.9200851 C49.8607192,26.1300206 49.1559184,26.2363232 48.3948111,26.2363232 C47.530071,26.2363232 46.695183,26.0822087 45.9134463,25.7783483 C45.1263702,25.472789 44.4256953,25.0203962 43.8310803,24.4337903 C43.2376787,23.8493687 42.75689,23.1270935 42.4020626,22.2871087 C42.0465071,21.4466386 41.8664237,20.4806926 41.8664237,19.4164531 C41.8664237,18.4184707 42.0380126,17.4983949 42.3765791,16.6819521 C42.7146602,15.8676936 43.1777318,15.1582815 43.7531735,14.5736172 C44.328858,13.9894383 45.001137,13.5295218 45.7518081,13.2064881 C46.5051489,12.8822409 47.2965936,12.717933 48.1035711,12.717933 C49.0683036,12.717933 49.9502755,12.8766588 50.7247312,13.1902272 C51.5081668,13.5069507 52.1789896,13.9639548 52.7194825,14.5483764 Z M45.8253462,17.693283 L50.4820312,17.693283 C50.4553342,17.5833399 50.4213562,17.4753384 50.381068,17.3700066 C50.2849588,17.1197829 50.1381253,16.8950427 49.9446934,16.7016108 C49.7490772,16.5057519 49.5005524,16.3455699 49.2061573,16.224948 C48.9103059,16.1040834 48.5474694,16.042923 48.1278411,16.042923 C47.7613641,16.042923 47.4310494,16.1065104 47.1468477,16.2319863 C46.8582774,16.3596465 46.6116942,16.5280803 46.413651,16.7324337 C46.2100257,16.9428546 46.0449897,17.183613 45.9231543,17.4476706 C45.8852931,17.5297032 45.8525286,17.6117358 45.8253462,17.693283 Z M75.8987892,14.6464272 C76.4912199,15.2478378 76.9591455,15.9667152 77.2894602,16.783158 C77.6188041,17.5991154 77.7857817,18.5014741 77.7857817,19.4649931 C77.7857817,20.4282694 77.6188041,21.3340258 77.2899456,22.1570215 C76.9601163,22.9822015 76.4917053,23.7056903 75.8987892,24.3075863 C75.3061158,24.9087542 74.6003442,25.385417 73.8008904,25.7244689 C72.9997377,26.0640062 72.1112129,26.2363232 71.1600716,26.2363232 C70.2256766,26.2363232 69.3420059,26.0642489 68.5333295,25.725197 C67.7236823,25.3856597 67.0164544,24.9080261 66.431062,24.3051593 C65.8471258,23.7039914 65.3838115,22.9812307 65.0544676,22.1570215 C64.7256091,21.3349966 64.5586315,20.4292402 64.5586315,19.4649931 C64.5586315,18.5002606 64.7258518,17.5981446 65.0551957,16.783158 C65.3847823,15.967686 65.8476112,15.2495367 66.4313047,14.6488542 C67.0164544,14.0462301 67.7236823,13.5683538 68.5333295,13.2288165 C69.3420059,12.8897646 70.2256766,12.717933 71.1600716,12.717933 C72.1112129,12.717933 72.9997377,12.8900073 73.8006477,13.2295446 C74.6005869,13.5685965 75.3063585,14.045502 75.8987892,14.6464272 Z M73.7399727,20.9187661 C73.8965142,20.5066615 73.9756344,20.017621 73.9756344,19.4649931 C73.9756344,18.9130933 73.8965142,18.4289068 73.7409435,18.0257821 C73.5873144,17.6282394 73.3778643,17.2916145 73.1179326,17.0246445 C72.8611559,16.7610723 72.5638484,16.5625437 72.2345045,16.4346408 C71.8954526,16.3035828 71.534315,16.237083 71.1600716,16.237083 C70.7858282,16.237083 70.4242052,16.3035828 70.0856387,16.4346408 C69.7582364,16.5618156 69.4667537,16.7586453 69.2187143,17.0200332 C68.9626658,17.2896729 68.7507887,17.630181 68.5886651,18.032335 C68.4267842,18.4335181 68.3449943,18.9152776 68.3449943,19.4649931 C68.3449943,20.0154367 68.4270269,20.5025356 68.5896359,20.9119705 C68.7517595,21.3214054 68.9631512,21.6650686 69.2187143,21.9337375 C69.4691807,22.1980378 69.7633331,22.4002069 70.0934051,22.53442 C70.4293019,22.6717882 70.7882552,22.7414431 71.1600716,22.7414431 C71.5316453,22.7414431 71.8905986,22.6717882 72.2269808,22.5346627 C72.5587517,22.3992361 72.8587289,22.1956108 73.1179326,21.9293689 C73.3773789,21.663127 73.5863436,21.3231043 73.7399727,20.9187661 Z M90.7237792,15.9460372 C90.9157549,16.5576412 91.0128349,17.218756 91.0128349,17.9116645 L91.0128349,25.8722247 L87.2269576,25.8722247 L87.2269576,18.3970645 C87.2269576,17.7755098 87.0735712,17.2456957 86.7714097,16.8224269 C86.5015273,16.4450284 86.0153991,16.2613045 85.2853575,16.2613045 C84.6307956,16.2613045 84.1575306,16.4646871 83.8391082,16.8828592 C83.4893775,17.342533 83.3194875,17.8932193 83.3194875,18.5669545 L83.3194875,25.8722247 L79.5336101,25.8722247 L79.5336101,13.0819344 L83.2464348,13.0819344 L83.2464348,13.7874633 C83.5049103,13.5651501 83.7895974,13.3809408 84.0963702,13.2370197 C84.7977732,12.9086466 85.5241743,12.7421544 86.2561575,12.7421544 C87.0505147,12.7421544 87.7550728,12.8792799 88.3501732,13.1496477 C88.9498849,13.4224425 89.4539728,13.8068793 89.8488457,14.2927647 C90.2332825,14.7672433 90.5276776,15.323269 90.7237792,15.9457945 L90.7237792,15.9460372 Z M62.2171832,22.5145672 C62.4613394,22.483987 62.5314797,22.4689396 62.5472552,22.4648137 L63.1510928,22.3126408 L63.1510928,25.5937021 L62.8465043,25.7157802 C62.7778202,25.743448 62.6484611,25.7885902 62.2560152,25.8924658 C61.9368647,25.9769254 61.5072857,26.0179417 60.9425227,26.0179417 C59.7161596,26.0179417 58.7283706,25.6611727 58.0068235,24.9575854 C57.2813932,24.2510857 56.9137027,23.260627 56.9137027,22.0133917 L56.9137027,16.5526416 L55.4575026,16.5526416 L55.4575026,13.0820315 L56.9132173,13.0820315 L56.9137027,9.46555873 L60.6755527,9.46555873 L60.6755527,13.0820315 L63.1268228,13.0820315 L63.1268228,16.5526416 L60.6755527,16.5526416 L60.6755527,21.552019 C60.6755527,21.9255343 60.7503043,22.195174 60.891313,22.3315714 C61.0371758,22.4725801 61.3150673,22.5473317 61.6948928,22.5473317 C61.8679379,22.5473317 62.04341,22.5361675 62.2171832,22.5145672 Z M1.24851497,12.9587399 C1.14463937,12.9864077 1.05969437,12.8762219 1.11114677,12.7818116 C2.26178749,10.6712924 4.24027793,9.01704913 6.74591278,8.34574091 C9.25130492,7.6746754 11.7921313,8.11808831 13.8439171,9.37066303 C13.9356577,9.42672673 13.9172125,9.56458034 13.8133369,9.59249084 L1.24851497,12.9587399 Z M16.6533396,12.0566725 C17.1996573,12.868504 17.6243823,13.7820269 17.8918377,14.7800093 C18.1592931,15.7779917 18.2481213,16.7813135 18.1811361,17.7574529 C18.1774956,17.8093907 18.1408479,17.8533194 18.090609,17.8666679 L1.68214707,22.2626931 C1.63190817,22.2760416 1.57827147,22.2563829 1.54914747,22.213425 C1.00307246,21.4013508 0.57834745,20.4880707 0.310649345,19.4900883 C0.0434366398,18.4921058 -0.0456342619,17.488784 0.0213509394,16.5124019 C0.0249914395,16.4607068 0.0616391401,16.4167781 0.111878041,16.4031869 L16.52034,12.0071617 C16.5705789,11.9938132 16.6244583,12.0134719 16.6533396,12.0566725 Z M16.9541177,21.3112606 C17.0577506,21.2835928 17.1426956,21.3937786 17.0912432,21.4881889 C15.9408451,23.5987081 13.962112,25.2529513 11.4567199,25.9242595 C8.95108502,26.5953251 6.41050137,26.1519121 4.35871553,24.8993374 C4.26697493,24.8432737 4.28542013,24.7054201 4.38905303,24.6775096 L16.9541177,21.3112606 Z" id="Logo"></path>
        </g>
    </g>
</svg>