<svg width="58999.99999999999" height="13000.000000000002" xmlns="http://www.w3.org/2000/svg">
 <defs>
  <style type="text/css">
   <![CDATA[
    .fil1 {fill:#2FC200}
    .fil0 {fill:white}
   ]]>
  </style>
 </defs>
 <g>
  <title>background</title>
  <rect fill="none" id="canvas_background" height="13002" width="59002" y="-1" x="-1"/>
 </g>
 <g>
  <title>Layer 1</title>
  <g id="Слой_x0020_1">
   <metadata transform="translate(100.01094055175781,0) translate(-100.01094055175781,0) translate(0,-100.01094055175781) translate(0,-100.01094055175781) translate(0,-100.01094055175781) translate(0,-100.01094055175781) translate(0,-100.01094055175781) translate(-100.01094055175781,0) translate(-100.01094055175781,0) translate(-100.01094055175781,0) translate(-100.01094055175781,0) translate(0,-100.01094055175781) translate(0,-100.01094055175781) translate(0,-100.01094055175781) translate(0,-100.01094055175781) translate(0,-100.01094055175781) translate(0,-100.01094055175781) translate(0,-100.01094055175781) translate(0,-100.01094055175781) translate(0,-100.01094055175781) translate(0,-100.01094055175781) translate(0,-100.01094055175781) translate(100.01094055175781,0) translate(0,-100.01094055175781) translate(0,100.01094055175781) translate(0,100.01094055175781) translate(0,100.01094055175781) translate(0,100.01094055175781) translate(0,100.01094055175781) translate(0,100.01094055175781) translate(0,100.01094055175781) translate(0,100.01094055175781) translate(0,100.01094055175781) translate(0,100.01094055175781) translate(0,100.01094055175781) translate(0,-100.01094055175781) translate(0,-100.01094055175781) translate(0,-100.01094055175781) translate(0,-100.01094055175781) translate(0,-100.01094055175781) translate(0,-100.01094055175781) translate(0,-100.01094055175781) translate(0,-100.01094055175781) translate(0,-100.01094055175781) translate(0,-100.01094055175781) translate(0,-100.01094055175781) translate(0,-100.01094055175781) translate(0,-100.01094055175781) translate(0,-100.01094055175781) translate(0,-100.01094055175781) translate(0,-100.01094055175781) translate(0,-100.01094055175781) translate(0,-100.01094055175781) translate(0,-100.01094055175781) translate(0,-100.01094055175781) translate(0,-100.01094055175781) translate(0,-100.01094055175781) translate(0,-100.01094055175781) translate(0,-100.01094055175781) translate(0,-100.01094055175781) translate(0,-100.01094055175781) translate(0,-100.01094055175781) translate(0,-100.01094055175781) translate(0,-100.01094055175781) translate(0,-100.01094055175781) translate(0,-100.01094055175781) translate(0,-100.01094055175781) translate(100.01094055175781,0) translate(100.01094055175781,0) translate(-100.01094055175781,0) translate(-100.01094055175781,0) translate(-100.01094055175781,0) translate(-100.01094055175781,0) translate(-100.01094055175781,0) translate(-100.01094055175781,0) translate(-100.01094055175781,0) translate(-100.01094055175781,0) translate(-100.01094055175781,0) translate(-100.01094055175781,0) translate(-100.01094055175781,0) translate(-100.01094055175781,0) translate(-100.01094055175781,0) translate(-100.01094055175781,0) translate(-100.01094055175781,0) translate(-100.01094055175781,0) translate(-100.01094055175781,0) translate(-100.01094055175781,0) translate(-100.01094055175781,0) translate(-100.01094055175781,0) translate(-100.01094055175781,0) translate(-100.01094055175781,0) translate(-100.01094055175781,0) translate(-100.01094055175781,0) translate(-100.01094055175781,0) translate(-100.01094055175781,0) translate(-100.01094055175781,0) translate(-100.01094055175781,0) translate(-100.01094055175781,0) translate(-100.01094055175781,0) translate(-100.01094055175781,0) translate(-100.01094055175781,0) translate(-100.01094055175781,0) translate(-100.01094055175781,0) translate(-100.01094055175781,0) translate(-100.01094055175781,0) translate(-100.01094055175781,0) translate(-100.01094055175781,0) translate(-100.01094055175781,0) translate(-100.01094055175781,0) translate(-100.01094055175781,0) translate(-100.01094055175781,0) translate(-100.01094055175781,0) translate(-100.01094055175781,0) translate(-100.01094055175781,0) translate(-100.01094055175781,0) translate(-100.01094055175781,0) translate(-100.01094055175781,0) translate(-100.01094055175781,0) translate(-100.01094055175781,0) translate(-100.01094055175781,0) translate(-100.01094055175781,0) translate(-6,0) translate(-9,0) translate(-6,0) translate(-9,0) translate(-14,0) translate(-23,0) translate(-34,0) translate(-37,0) translate(-26,0) translate(-23,0) translate(-29,0) translate(-11,0) translate(-14,0) translate(-17,0) translate(-11,0) translate(-37,0) translate(-31,0) translate(-17,0) translate(-20,0) translate(-23,0) translate(-6,0) translate(-11,0) translate(-9,0) translate(-9,0) translate(-9,0) translate(-9,0) translate(-6,0) translate(-3,0) translate(-9,0) translate(-11,0) translate(-6,0) translate(-6,0) translate(-3,0) translate(-3,0) translate(-6,0) translate(-14,0) translate(-17,0) translate(-9,0) translate(-20,0) translate(-6,0) translate(-3,0) translate(-6,0) translate(-3,0) " id="CorelCorpID_0Corel-Layer"/>
   <path id="svg_1" d="m1114.420151,769.584259c-28,8 -75,36 -104,64l-52,49l4,3039c4,3337 -3,3056 83,3532c304,1688 1404,3178 2932,3974c1477,770 3184,852 4748,231c193,-76 604,-281 782,-389c403,-247 702,-476 1030,-796c1228,-1194 1844,-2868 1688,-4580c-118,-1291 -672,-2498 -1574,-3424c-894,-924 -2082,-1512 -3360,-1668c-340,-42 -652,-48 -2376,-48c-1898,0 -1769,-6 -1841,80c-60,70 -65,130 -60,840c4,658 4,660 35,717c17,31 49,69 73,83c41,26 79,26 1807,26c1093,0 1838,6 1960,14c1153,82 2206,670 2884,1609c392,543 650,1228 717,1904c16,173 17,591 1,753c-130,1306 -861,2426 -1997,3059c-639,356 -1392,525 -2133,477c-706,-45 -1340,-257 -1919,-637c-231,-152 -407,-297 -617,-511c-648,-653 -1042,-1508 -1119,-2432c-7,-74 -12,-1420 -13,-2989c-2,-2748 -3,-2855 -26,-2887c-13,-18 -52,-48 -84,-66l-58,-34l-680,-2c-434,-2 -699,2 -731,12l0,0zm833,305c206,44 366,183 438,381c25,71 29,103 24,220c-4,122 -11,148 -48,227c-72,148 -188,249 -352,305c-124,42 -294,32 -416,-25c-123,-57 -224,-157 -284,-279c-140,-282 -22,-634 260,-776c124,-62 249,-80 378,-53l0,0zm2334,25c346,130 488,535 300,856c-50,86 -158,180 -258,227c-122,57 -292,67 -418,25c-282,-94 -458,-384 -400,-661c33,-164 145,-325 278,-404c144,-84 343,-101 498,-43l0,0zm1917,-26c109,21 207,72 292,153c231,220 249,552 44,805c-188,232 -572,268 -807,76c-377,-306 -250,-901 219,-1026c87,-24 159,-26 252,-8l0,0z" class="fil0"/>
   <path id="svg_2" d="m16025.420151,5419.584259l0,4254l1830,0c1207,0 1882,-6 1978,-15c913,-89 1606,-520 1952,-1209c237,-475 317,-1131 205,-1683c-127,-616 -527,-1133 -1088,-1404c-109,-52 -140,-76 -100,-76c31,0 255,-135 363,-220c373,-292 630,-731 714,-1217c30,-174 35,-496 11,-683c-69,-561 -283,-1004 -655,-1352c-364,-344 -868,-557 -1477,-627c-153,-18 -439,-21 -1956,-21l-1777,0l0,4253zm3597,-3057c167,39 244,64 369,125c226,110 387,268 495,486c97,198 117,292 117,573c0,283 -20,377 -120,577c-161,322 -477,532 -912,611c-110,20 -261,24 -1189,28l-1064,5l0,-1221l0,-1221l1091,5c1050,4 1093,5 1213,32l0,0zm-24,3577c237,31 471,116 649,238c43,29 124,101 180,161c124,131 223,313 274,505c30,115 34,155 36,363c0,197 -4,251 -30,351c-136,541 -538,874 -1142,942c-71,8 -556,14 -1183,14l-1064,0l0,-1294l0,-1293l1091,0c622,0 1132,7 1189,13l0,0z" class="fil0"/>
   <polygon id="svg_3" points="33718.37812805176,1746.5859375 33718.37812805176,2326.58740234375 34885.37812805176,2326.58740234375 36051.37812805176,2326.58740234375 36051.37812805176,5999.591796875 36051.37812805176,9673.591796875 36698.37812805176,9673.591796875 37345.37812805176,9673.591796875 37345.37812805176,5999.591796875 37345.37812805176,2326.58740234375 38518.37812805176,2326.58740234375 39691.37812805176,2326.58740234375 39691.37812805176,1746.5859375 39691.37812805176,1166.58447265625 36705.37812805176,1166.58447265625 33718.37812805176,1166.58447265625 " class="fil1"/>
   <path id="svg_4" d="m56891.420151,2686.584259l0,1520l-124,-123c-342,-340 -697,-490 -1248,-532c-534,-40 -1074,87 -1445,338c-483,328 -767,897 -868,1745c-65,540 -65,1468 0,2012c99,824 364,1385 813,1716c359,264 910,412 1439,384c580,-29 988,-205 1344,-580l116,-121l0,313l0,315l600,0l600,0l0,-4254l0,-4253l-613,0l-614,0l0,1520l0,0zm-938,1979c496,104 773,448 882,1096c47,270 60,534 52,1018c-5,303 -14,496 -29,600c-68,487 -177,756 -393,975c-182,183 -370,263 -687,292c-264,25 -531,-19 -727,-120c-356,-185 -546,-535 -633,-1160c-29,-209 -43,-949 -21,-1227c18,-240 57,-478 102,-640c44,-150 162,-386 242,-486c166,-204 404,-330 700,-367c128,-16 394,-5 512,19l0,0z" class="fil1"/>
   <path id="svg_5" d="m30385.420151,2806.584259l0,920l-343,3l-344,4l-4,469l-3,471l347,0l347,0l0,1716c0,1162 5,1756 14,1837c96,789 590,1312 1346,1427c92,14 253,20 584,20l456,0l0,-520l0,-520l-290,0c-340,-2 -458,-18 -576,-80c-98,-54 -192,-151 -236,-246c-73,-160 -72,-116 -72,-1945l0,-1689l587,0l587,0l-3,-471l-4,-469l-583,-4l-584,-3l0,-920l0,-920l-613,0l-613,0l0,920l0,0z" class="fil0"/>
   <path id="svg_6" d="m3145.420151,2801.584259c-19,12 -47,40 -62,62c-65,100 -65,95 -65,996c0,787 1,852 24,918c13,38 45,90 69,116l43,46l1797,0c1759,0 1799,0 1931,28c445,91 803,364 1003,766c172,345 200,738 78,1105c-198,608 -789,1011 -1430,977c-624,-32 -1128,-432 -1316,-1042l-38,-120l-8,-614c-8,-702 0,-658 -129,-722l-77,-38l-875,0l-873,0l-79,40c-132,68 -127,40 -125,700c1,572 12,755 58,1014c90,484 274,937 547,1346c148,223 264,364 440,540c461,462 1027,784 1647,940c350,88 448,99 900,99c453,0 548,-9 904,-100c776,-195 1484,-671 1972,-1324c508,-679 764,-1547 705,-2384c-39,-539 -151,-952 -388,-1417c-556,-1098 -1639,-1830 -2869,-1940c-76,-7 -940,-12 -1944,-12c-1619,0 -1811,1 -1840,20l0,0zm1034,500c119,21 216,73 306,164c312,313 186,833 -232,968c-138,44 -294,34 -419,-23c-124,-59 -225,-157 -285,-281c-43,-86 -50,-114 -55,-216c-8,-152 27,-271 108,-382c67,-92 128,-140 229,-186c118,-55 223,-67 348,-44l0,0zm19,2326c368,83 563,486 399,828c-108,226 -375,367 -614,324c-224,-40 -396,-186 -465,-394c-39,-114 -33,-295 11,-406c65,-165 233,-310 408,-352c108,-25 152,-25 261,0l0,0z" class="fil0"/>
   <path id="svg_7" d="m25793.420151,3554.584259c-986,93 -1722,675 -2068,1632c-300,827 -311,2031 -27,2885c281,844 843,1370 1685,1580c584,147 1343,126 1899,-53c380,-123 751,-355 1088,-680l121,-119l-388,-362l-388,-363l-118,105c-342,307 -626,446 -1015,494c-175,22 -609,10 -744,-20c-147,-32 -317,-100 -443,-175c-128,-77 -314,-253 -397,-377c-169,-254 -267,-574 -289,-959l-8,-149l1968,0l1969,0l0,-318c0,-369 -17,-637 -55,-869c-202,-1263 -957,-2067 -2096,-2233c-181,-27 -521,-36 -694,-19l0,0zm617,1051c396,100 692,361 860,760c93,220 127,373 148,670l8,118l-1363,0l-1362,0l9,-151c19,-316 64,-496 181,-736c176,-361 499,-603 907,-679c157,-29 459,-20 612,18l0,0z" class="fil0"/>
   <path id="svg_8" d="m42219.420151,3554.584259c-985,93 -1721,675 -2068,1632c-300,827 -310,2031 -26,2885c281,844 842,1370 1685,1580c584,147 1343,126 1899,-53c380,-123 750,-355 1088,-680l121,-119l-388,-362l-388,-363l-119,105c-341,307 -625,446 -1014,494c-175,22 -610,10 -744,-20c-147,-32 -318,-100 -443,-175c-128,-77 -315,-253 -397,-377c-170,-254 -267,-574 -290,-959l-8,-149l1968,0l1970,0l0,-318c0,-369 -18,-637 -55,-869c-203,-1263 -957,-2067 -2096,-2233c-181,-27 -521,-36 -695,-19l0,0zm618,1051c396,100 692,361 860,760c93,220 126,373 148,670l8,118l-1363,0l-1363,0l10,-151c18,-316 64,-496 181,-736c176,-361 499,-603 907,-679c157,-29 458,-20 612,18l0,0z" class="fil1"/>
   <path id="svg_9" d="m49253.420151,3554.584259c-482,47 -948,252 -1278,563l-110,105l0,-301l0,-302l-600,0l-600,0l0,3027l0,3027l613,0l613,0l0,-1887c0,-1255 6,-1931 15,-2016c73,-660 457,-1057 1091,-1125c161,-18 369,-4 513,34c460,122 743,458 828,980c17,110 20,387 20,2070l0,1944l613,0l614,0l0,-2052c0,-1330 -6,-2100 -14,-2190c-45,-442 -180,-824 -393,-1108c-109,-145 -308,-333 -451,-429c-398,-265 -945,-391 -1474,-340l0,0z" class="fil1"/>
  </g>
 </g>
</svg>